# Alias OBJ Model File
# Exported from SketchUp, (c) 2000-2012 Trimble Navigation Limited
# File units = meters

mtllib DECA.mtl

g Mesh1 Model

usemtl FrontColor
v 105.748 0 -39.3386
vt 1873.41 0
vn -0.70277 0 0.711417
v 122.309 0 -22.9781
vt 2789.95 0
v 122.309 8.68 -22.9781
vt 2789.95 341.732
v 105.748 8.68 -39.3386
vt 1873.41 341.732
f 1/1/1 2/2/1 3/3/1 4/4/1 

vt -4027.65 0
vn -0.711417 0 -0.70277
v 115.907 0 -16.4971
vt -3668.99 0
v 115.907 8.68 -16.4971
vt -3668.99 341.732
vt -4027.65 341.732
f 2/5/2 5/6/2 6/7/2 3/8/2 

vt -2789.95 0
vn 0.70277 0 -0.711417
v 102.895 0 -29.3508
vt -2069.87 0
v 102.895 8.68 -29.3508
vt -2069.87 341.732
vt -2789.95 341.732
f 5/9/3 7/10/3 8/11/3 6/12/3 

v 100.007 0 -26.4268
vt -3507.18 0
v 100.007 8.68 -26.4268
vt -3507.18 341.732
f 7/6/2 9/13/2 10/14/2 8/7/2 

vt 2069.87 0
v 107.384 0 -19.1391
vt 2478.14 0
v 107.384 8.68 -19.1391
vt 2478.14 341.732
vt 2069.87 341.732
f 9/15/1 11/16/1 12/17/1 10/18/1 

vt -3995.94 0
vn -0.523857 0 -0.851806
v 104.786 0 -17.5414
vt -3875.86 0
v 104.786 8.68 -17.5414
vt -3875.86 341.732
vt -3995.94 341.732
f 11/19/4 13/20/4 14/21/4 12/22/4 

vt -2572.48 0
vn 0.67616 0 -0.736755
v 101.699 0 -20.3745
vt -2407.52 0
v 101.699 8.68 -20.3745
vt -2407.52 341.732
vt -2572.48 341.732
f 13/23/5 15/24/5 16/25/5 14/26/5 

vt -3635.95 0
vn -0.621206 0 -0.783647
v 97.4519 0 -17.0075
vt -3422.56 0
v 97.4519 8.68 -17.0075
vt -3422.56 341.732
vt -3635.95 341.732
f 15/27/6 17/28/6 18/29/6 16/30/6 

vt -2353.68 0
vn 0.68097 0 -0.732311
v 84.0213 0 -29.4965
vt -1631.63 0
v 84.0213 8.68 -29.4965
vt -1631.63 341.732
vt -2353.68 341.732
f 17/31/7 19/32/7 20/33/7 18/34/7 

vt 2864.95 0
vn 0.814514 0 0.580144
v 85.1918 0 -31.1399
vt 2944.39 0
v 85.1918 8.68 -31.1399
vt 2944.39 341.732
vt 2864.95 341.732
f 19/35/8 21/36/8 22/37/8 20/38/8 

vt -2261.47 0
vn 0.509476 0 -0.860485
v 82.9817 0 -32.4484
vt -2160.35 0
v 82.9817 8.68 -32.4484
vt -2160.35 341.732
vt -2261.47 341.732
f 21/39/9 23/40/9 24/41/9 22/42/9 

vt 1277.5 0
vn 1 0 -0
v 82.9817 0 -35.2184
vt 1386.55 0
v 82.9817 8.68 -35.2184
vt 1386.55 341.732
vt 1277.5 341.732
f 23/43/10 25/44/10 26/45/10 24/46/10 

vt 3267 0
vn 0 0 1
v 86.1617 0 -35.2184
vt 3392.19 0
v 86.1617 8.68 -35.2184
vt 3392.19 341.732
vt 3267 341.732
f 25/47/11 27/48/11 28/49/11 26/50/11 

vt -1386.55 0
vn -1 0 -0
v 86.1617 0 -32.4801
vt -1278.74 0
v 86.1617 8.68 -32.4801
vt -1278.74 341.732
vt -1386.55 341.732
f 27/51/12 29/52/12 30/53/12 28/54/12 

vt 3513.19 0
vn 0.57265 0 0.8198
v 87.8833 0 -33.6826
vt 3595.87 0
v 87.8833 8.68 -33.6826
vt 3595.87 341.732
vt 3513.19 341.732
f 29/55/13 31/56/13 32/57/13 30/58/13 

vt 1486.96 0
vn -0.711666 0 0.702518
v 93.4051 0 -28.089
vt 1796.41 0
v 93.4051 8.68 -28.089
vt 1796.41 341.732
vt 1486.96 341.732
f 31/59/14 33/60/14 34/61/14 32/62/14 

vt 3462.77 0
vn 0.673632 0 0.739067
vt 4120.25 0
vt 4120.25 341.732
vt 3462.77 341.732
f 33/63/15 1/64/15 4/65/15 34/66/15 

vt -3836.69 669.588
vn 0 -1 -0
vt -3307.93 1161.28
vt -3354.01 1225.98
vt -3267 1277.5
vt -3267 1386.55
vt -3392.19 1386.55
vt -3392.19 1278.74
vt -3459.97 1326.09
vt -3677.37 1105.86
vt -4163.29 1548.76
vt -4815.33 904.65
vt -4563.27 649.492
vt -4050.99 1155.54
vt -3937.28 1040.43
vt -4227.73 753.509
vt -4125.44 690.605
vt -4003.91 802.144
f 18/67/16 20/68/16 22/69/16 24/70/16 26/71/16 28/72/16 30/73/16 32/74/16 34/75/16 4/76/16 3/77/16 6/78/16 8/79/16 10/80/16 12/81/16 14/82/16 16/83/16 

