# Alias OBJ Model File
# Exported from SketchUp, (c) 2000-2012 Trimble Navigation Limited
# File units = meters

mtllib Quimica.mtl

g Mesh1 Model

usemtl FrontColor
v 95.1616 0 -60.5938
vt -888.812 0
vn 0.718972 0 -0.695039
v 67.1273 0 -89.5933
vt 699.17 0
v 67.1273 8.48 -89.5933
vt 699.17 333.858
v 95.1616 8.48 -60.5938
vt -888.812 333.858
f 1/1/1 2/2/1 3/3/1 4/4/1 

vt 4388.65 0
vn 0.741443 0 0.671016
v 72.7303 0 -95.7843
vt 4717.39 0
v 72.7303 8.48 -95.7843
vt 4717.39 333.858
vt 4388.65 333.858
f 2/5/2 5/6/2 6/7/2 3/8/2 

vt -802.169 0
vn -0.730921 0 0.682462
v 98.2271 0 -68.4771
vt 668.697 0
v 98.2271 8.48 -68.4771
vt 668.697 333.858
vt -802.169 333.858
f 5/9/3 7/10/3 8/11/3 6/12/3 

vt 4666.51 0
vn 0.682462 0 0.730921
v 102.086 0 -72.0805
vt 4874.38 0
v 102.086 8.48 -72.0805
vt 4874.38 333.858
vt 4666.51 333.858
f 7/13/4 9/14/4 10/15/4 8/16/4 

v 104.53 0 -69.4638
vt 809.642 0
v 104.53 8.48 -69.4638
vt 809.642 333.858
f 9/10/3 11/17/3 12/18/3 10/11/3 

vt -4874.38 0
vn -0.682462 0 -0.730921
v 98.6311 0 -63.9564
vt -4556.67 0
v 98.6311 8.48 -63.9564
vt -4556.67 333.858
vt -4874.38 333.858
f 11/19/5 13/20/5 14/21/5 12/22/5 

vt -809.642 0
vn 0.730921 0 -0.682462
v 97.2593 0 -65.4255
vt -730.508 0
v 97.2593 8.48 -65.4255
vt -730.508 333.858
vt -809.642 333.858
f 13/23/6 15/24/6 16/25/6 14/26/6 

v 95.1616 0 -63.4668
vt -4443.67 0
v 95.1616 8.48 -63.4668
vt -4443.67 333.858
f 15/20/5 17/27/5 18/28/5 16/21/5 

vt 730.508 0
v 96.5947 0 -61.9319
vt 813.185 0
v 96.5947 8.48 -61.9319
vt 813.185 333.858
vt 730.508 333.858
f 17/29/3 19/30/3 20/31/3 18/32/3 

vt -4366.48 0
vt -4366.48 333.858
f 19/27/5 1/33/5 4/34/5 20/28/5 

vt -3746.52 2385.58
vn 0 -1 -0
vt -2642.81 3527.29
vt -2863.4 3771.04
vt -3867.21 2695.95
vt -4019.15 2837.82
vt -4115.34 2734.8
vt -3883.11 2517.97
vt -3829.11 2575.81
vt -3746.52 2498.69
vt -3802.94 2438.26
f 4/35/7 3/36/7 6/37/7 8/38/7 10/39/7 12/40/7 14/41/7 16/42/7 18/43/7 20/44/7 

g Mesh2 Model

v 104.926 8.54 -70.1358
vt -4130.93 2761.25
v 82.9817 8.54 -92.8924
vt -3267 3657.18
v 88.6544 8.54 -98.3763
vt -3490.33 3873.08
v 110.84 8.54 -75.4267
vt -4363.78 2969.56
v 109.043 8.54 -73.6891
vt -4293.02 2901.15
v 107.363 8.54 -75.4267
vt -4226.89 2969.56
v 104.926 8.54 -73.0705
vt -4130.93 2876.79
v 106.392 8.54 -71.5535
vt -4188.67 2817.07
f 21/45/7 22/46/7 23/47/7 24/48/7 25/49/7 26/50/7 27/51/7 28/52/7 

v 104.926 0 -70.1358
vt -879.744 0
vn 0.719846 0 -0.694134
v 82.9817 0 -92.8924
vt 364.872 0
vt 364.872 336.22
vt -879.744 336.22
f 29/53/8 30/54/8 22/55/8 21/56/8 

vt 4890.76 0
vn 0.695039 0 0.718972
v 88.6544 0 -98.3763
vt 5201.39 0
vt 5201.39 336.22
vt 4890.76 336.22
f 30/57/9 31/58/9 23/59/9 22/60/9 

vt -358.72 0
vn -0.718972 0 0.695039
v 110.84 0 -75.4267
vt 897.973 0
vt 897.973 336.22
vt -358.72 336.22
f 31/61/10 32/62/10 24/63/10 23/64/10 

vt -5201.39 0
vn -0.695039 0 -0.718972
v 109.043 0 -73.6891
vt -5102.97 0
vt -5102.97 336.22
vt -5201.39 336.22
f 32/65/11 33/66/11 25/67/11 24/68/11 

vt -897.973 0
v 107.363 0 -75.4267
vt -802.824 0
vt -802.824 336.22
vt -897.973 336.22
f 33/69/1 34/70/1 26/71/1 25/72/1 

v 104.926 0 -73.0705
vt -4969.5 0
vt -4969.5 336.22
f 34/66/11 35/73/11 27/74/11 26/67/11 

vt 802.824 0
v 106.392 0 -71.5535
vt 885.895 0
vt 885.895 336.22
vt 802.824 336.22
f 35/75/10 36/76/10 28/77/10 27/78/10 

vt -4889.2 0
vt -4889.2 336.22
f 36/73/11 29/79/11 21/80/11 28/74/11 

